<?xml version="1.0" ?><!DOCTYPE svg  PUBLIC '-//W3C//DTD SVG 1.1//EN'  'http://www.w3.org/Graphics/SVG/1.1/DTD/svg11.dtd'><svg enable-background="new 0 0 128 128" id="Слой_1" version="1.1" viewBox="0 0 128 128" xml:space="preserve" xmlns="http://www.w3.org/2000/svg" xmlns:xlink="http://www.w3.org/1999/xlink"><g><g><path d="M104.6,46.5c5.9-1.5,12-3.6,15.8-8.3c-4-5-10.9-7.1-17.8-8.8C92.9,27.2,79,26.2,84,26.7    c-4.2,0.4-8.9,0.7-14.2,0.8L70,49.1c5.1,0.1,9.7,0.4,14,0.9C79.8,50.3,95.6,48.9,104.6,46.5z" fill="#E074A3"/></g><g><path d="M25.4,29.5c-7,1.6-13.8,3.7-17.8,8.8c4,5,10.9,7.1,17.8,8.8c9.7,2.3,23.7,3.4,18.6,2.9    C49.9,49.3,56.6,49,64,49V27.6c-7.4,0-14.1-0.4-19.9-0.9" fill="#90D3EA"/></g><g><path d="M83.3,51.2L83.3,51.2c-0.2,0-0.5-0.1-0.7-0.2c-4-0.4-8.3-0.6-12.6-0.7c-0.7,0-1.2-0.6-1.2-1.2l-0.2-21.5    c0-0.7,0.5-1.2,1.2-1.3c4.3-0.1,8.4-0.3,12.3-0.7c0.2-0.2,0.5-0.3,0.8-0.3c0.7,0,11.9,1.1,19.9,3c6.6,1.6,14.1,3.7,18.5,9.2    c0.4,0.5,0.4,1.1,0,1.6c-3.9,4.9-10.2,7.1-16.4,8.7c-7.1,1.9-18.2,3.1-20.7,3.4c0,0-0.1,0-0.1,0l-0.4,0c0,0-0.1,0-0.1,0l-0.2,0v0    C83.4,51.2,83.3,51.2,83.3,51.2z M71.3,47.8C75.7,48,80,48.3,84,48.7c2.5-0.3,13.4-1.5,20.3-3.3c5.4-1.4,10.9-3.3,14.4-7.1    c-4-4.3-10.6-6.1-16.4-7.5c-6.5-1.5-14.9-2.5-18.1-2.8c0,0,0,0,0,0c-4.1,0.4-8.5,0.7-13,0.8L71.3,47.8z" fill="#502D4B"/></g><g><path d="M45,51.3c-0.9,0-2.7-0.2-6.8-0.7c-3.6-0.5-8.7-1.2-13.1-2.3c-6.6-1.6-14.1-3.7-18.5-9.2    c-0.4-0.5-0.4-1.1,0-1.6c4.4-5.5,11.9-7.6,18.5-9.2c0.7-0.2,1.3,0.3,1.5,0.9s-0.3,1.3-0.9,1.5c-5.9,1.4-12.4,3.2-16.5,7.5    c4,4.3,10.6,6.2,16.5,7.5c6.5,1.5,15,2.5,18.2,2.8c0,0,0,0,0,0c5.9-0.6,12.2-0.9,18.8-0.9V28.8c-6.6,0-12.9-0.3-18.8-0.9    c-0.7-0.1-1.2-0.7-1.1-1.4c0.1-0.7,0.7-1.2,1.4-1.1c6.2,0.6,12.9,0.9,19.8,0.9c0.7,0,1.2,0.6,1.2,1.2V49c0,0.7-0.6,1.2-1.2,1.2    c-6.3,0-12.3,0.3-18,0.8C45.8,51.2,45.6,51.3,45,51.3z" fill="#502D4B"/></g><path d="M70.1,50.8c13.2-0.3,25.5-1.8,34.5-4.2c5.9-1.5,12-3.6,15.8-8.3c-4-5-10.9-7.1-17.8-8.8   C92.9,27.2,79,26.2,84,26.7c-4.2,0.4-8.9,0.7-14.2,0.8L70,49.1c5.1,0.1,9.7,0.4,14,0.9C79.8,50.3,75.2,50.6,70.1,50.8L70.1,50.8z" fill="#502D4B" opacity="0.2"/><path d="M25.4,29.5c-7,1.6-13.8,3.7-17.8,8.8c4,5,10.9,7.1,17.8,8.8c9.7,2.3,23.7,3.4,18.6,2.9   C49.9,49.3,56.6,49,64,49V27.6c-7.4,0-14.1-0.4-19.9-0.9" fill="#502D4B" opacity="0.2"/><g><path d="M77.9,14.4l-7.3,1.2c-2.5,0.4-4.1,0.7-6.6,0.8c-2.6-0.1-4.1-0.3-6.6-0.8l-7.3-1.2    c-13.7-2.3-28.2,6.4-28.2,23c0,18.3,12.5,54,22.9,74.1c0.8,1.6,2.4,2.5,4.2,2.5h0c2.3,0,4.3-1.7,4.7-4c1.4-9,3.1-21.8,7.5-28.1    c0,0,0,0,0,0c1.8-2.5,3.6-2.5,5.4,0c0,0,0,0,0,0c4.4,6.3,6.1,19.1,7.5,28.1c0.4,2.3,2.4,4,4.7,4h0c1.8,0,3.4-1,4.2-2.5    c10.4-20.1,22.9-55.8,22.9-74.1C106.1,20.7,91.6,12.1,77.9,14.4z" fill="#FFFFFF"/></g><path d="M77.9,14.4l-0.7,0.1c10.2,2,18.9,10,18.9,22.9c0,17.8-17.2,76.6-17.2,76.6h0   c1.8,0,3.4-1,4.2-2.5c10.4-20.1,22.9-55.8,22.9-74.1C106.1,20.7,91.6,12.1,77.9,14.4z" fill="#502D4B" opacity="0.2"/><path d="M61.3,81.9C61.3,81.9,61.4,81.9,61.3,81.9C57,82.8,47.3,114,49,114h0c2.3,0,4.4-1.7,4.7-4   C56.1,92.1,63.1,79.4,61.3,81.9z" fill="#502D4B" opacity="0.2"/><g><path d="M79,115.2L79,115.2c-3,0-5.5-2.1-6-5.1l-0.3-2.2c-1.3-8.4-3.1-19.8-7-25.4c-0.6-0.9-1.2-1.4-1.7-1.4    s-1.1,0.5-1.7,1.4c-3.9,5.6-5.7,17.1-7,25.4l-0.3,2.2c-0.5,2.9-3,5.1-5.9,5.1c-2.3,0-4.3-1.2-5.3-3.2    C29.9,85.4,20.7,51.9,20.7,37.4c0-7.3,2.7-13.6,7.7-18.2c4.6-4.1,10.8-6.4,17.3-6.4c1.5,0,3.1,0.1,4.6,0.4l7.3,1.2    c2.6,0.4,4,0.7,6.5,0.7c2.4-0.1,3.8-0.3,6.4-0.7l7.3-1.2c1.5-0.2,3-0.4,4.6-0.4c6.6,0,12.7,2.3,17.3,6.4    c5.1,4.6,7.7,10.8,7.7,18.2c0,14.6-9.3,48-23.1,74.7C83.2,114,81.2,115.2,79,115.2z M64,78.7c1.3,0,2.6,0.8,3.7,2.4    c4.2,6.1,6,17.4,7.4,26.5l0.3,2.2c0.3,1.7,1.7,3,3.5,3h0c1.3,0,2.5-0.7,3.1-1.9c10.8-20.8,22.8-56.1,22.8-73.5    c0-14.5-11.4-22.1-22.6-22.1c-1.4,0-2.8,0.1-4.1,0.3l-7.3,1.2c-2.6,0.4-4.2,0.7-6.8,0.8c-2.7-0.1-4.3-0.3-6.9-0.8l-7.3-1.2    c-1.4-0.2-2.8-0.3-4.1-0.3c-11.2,0-22.6,7.6-22.6,22.1c0,17.4,12,52.7,22.8,73.5c0.6,1.1,1.8,1.9,3.1,1.9c1.8,0,3.2-1.2,3.5-3    l0.3-2.2c1.4-9.1,3.2-20.4,7.4-26.4C61.4,79.5,62.7,78.7,64,78.7z" fill="#502D4B"/></g><g opacity="0.8"><path d="M29.4,39.9c-1.4,0-2.5-1.1-2.5-2.5c0-12.1,9.5-18.4,18.8-18.4c1.4,0,2.5,1.1,2.5,2.5S47.1,24,45.7,24    c-9.5,0-13.8,6.7-13.8,13.4C31.9,38.7,30.8,39.9,29.4,39.9z" fill="#FFFFFF"/></g><g><path d="M59.3,24.8c-0.4,0-0.8-0.2-1-0.5c-0.4-0.6-0.3-1.3,0.3-1.7c6.2-4.6,11.3-7.9,19.2-9.4    c0.7-0.1,1.3,0.3,1.5,1s-0.3,1.3-1,1.5c-7.4,1.4-12,4.4-18.1,9C59.8,24.7,59.5,24.8,59.3,24.8z" fill="#502D4B"/></g><g><path d="M51.2,50.5c-9.7-0.5-18.6-1.7-25.8-3.4c-7-1.6-13.8-3.7-17.8-8.8C5.4,41.1,4,44.8,4,49.9    c0,14.2,10.6,17.8,21.4,20.4c7.3,1.7,16.1,2.9,25.8,3.4L64,62.2L51.2,50.5z" fill="#90D3EA"/></g><g><path d="M120.4,38.3c-3.8,4.7-9.9,6.7-15.8,8.3c-9,2.4-21.3,3.9-34.5,4.2l0,0c-0.1,0-0.1,0-0.2,0l12.7,11.8    L70.1,73.8l0,0.2c13.2-0.3,25.5-1.8,34.5-4.2c9.4-2.5,19.4-6.2,19.4-19.9C124,44.8,122.6,41.1,120.4,38.3z" fill="#E074A3"/></g><path d="M120.4,38.3c-1.9,2.4-4.4,4.1-7.2,5.4c0.5,1.8,0.9,3.9,0.9,6.3c0,13.7-10,17.4-19.4,19.9   c-6.6,1.7-15,3-24.2,3.7l-0.4,0.3l0,0.2c13.2-0.3,25.5-1.8,34.5-4.2c9.4-2.5,19.4-6.2,19.4-19.9C124,44.8,122.6,41.1,120.4,38.3z" fill="#502D4B" opacity="0.2"/><g><path d="M51.2,75C51.2,75,51.2,75,51.2,75c-9.8-0.6-18.8-1.8-26.1-3.5C14.3,69,2.8,65,2.8,49.9    c0-5.1,1.3-9.1,3.9-12.4c0.5-0.6,1.5-0.6,2,0c3.9,4.9,10.9,6.9,17.1,8.3c7.1,1.7,16,2.9,25.6,3.4c0.3,0,0.6,0.1,0.8,0.3l12.8,11.8    c0.3,0.2,0.4,0.6,0.4,0.9s-0.2,0.7-0.4,0.9L52.1,74.7C51.9,74.9,51.6,75,51.2,75z M7.7,40.3c-1.7,2.6-2.5,5.8-2.5,9.6    c0,13.2,9.7,16.6,20.5,19.2c7,1.6,15.6,2.8,25.1,3.4l11.3-10.2L50.7,51.7c-9.6-0.6-18.4-1.8-25.6-3.4C19,46.8,12.2,44.9,7.7,40.3z    " fill="#502D4B"/></g><g><path d="M70.1,75.2c-0.3,0-0.6-0.1-0.9-0.4c-0.2-0.2-0.4-0.6-0.4-0.9l0-0.2c0-0.4,0.1-0.7,0.4-0.9l11.5-10.4    L69,51.7c-0.4-0.3-0.5-0.9-0.3-1.4c0.2-0.5,0.6-0.8,1.1-0.8l0.2,0c0,0,0.1,0,0.1,0c13.1-0.3,25.2-1.8,34.1-4.2    c5.8-1.5,11.6-3.5,15.1-7.9c0.2-0.3,0.6-0.5,1-0.5l0,0c0.4,0,0.7,0.2,1,0.5c2.6,3.3,3.9,7.3,3.9,12.4c0,15.8-13.2,19.2-20.3,21.1    C95.8,73.4,83.4,74.9,70.1,75.2C70.1,75.2,70.1,75.2,70.1,75.2z M73,51.9l10.5,9.7c0.3,0.2,0.4,0.6,0.4,0.9s-0.2,0.7-0.4,0.9    l-10.2,9.2c11.9-0.5,22.8-1.9,31-4.1c9.3-2.4,18.5-5.9,18.5-18.7c0-3.9-0.8-7-2.5-9.6c-3.9,4.1-9.7,6-15.4,7.5    C96.4,50,85.2,51.4,73,51.9z" fill="#502D4B"/></g></g></svg>